<svg xmlns="http://www.w3.org/2000/svg" viewBox="0 0 32 40" x="0px" y="0px"><g data-name="shopping basket"><path d="M26.76,11.07063H25.09l-2.85-6.25a1.0003,1.0003,0,0,0-1.82.83l2.47,5.42H9.11l2.47-5.42a1.00031,1.00031,0,0,0-1.82-.82992l-2.84,6.25H5.24a3.08257,3.08257,0,0,0-3.04,3.58l1.75,10.54a3.082,3.082,0,0,0,3.04,2.57H25.01a3.082,3.082,0,0,0,3.04-2.57l1.75-10.54A3.08257,3.08257,0,0,0,26.76,11.07063ZM10.98975,23.068a1.00144,1.00144,0,0,1-1.2251-.70655l-1.44287-5.3706a1,1,0,1,1,1.93164-.51856l1.44287,5.37061A1.00015,1.00015,0,0,1,10.98975,23.068ZM17,22.10219a1.0001,1.0001,0,0,1-2-.00005V16.73158a1.0001,1.0001,0,0,1,2,0Zm6.67822-5.11133-1.44287,5.3706a1.00011,1.00011,0,0,1-1.93163-.51859l1.44286-5.37057A1.00012,1.00012,0,0,1,23.67822,16.99086Z" fill="black"/></g></svg>